#!OML:ASF Y:\EmotionMaleHayes\Project 1\Capture day 1\Session 1\Male1.ASF
:FULLY-SPECIFIED
:DEGREES
2282
root -29.0438 16.9297 1.32913 653.072 85.8095 -63.4846
lowerback 9.84103 1.85036 2.36078
upperback 2.77626 2.81181 1.02353
thorax -2.56545 1.43127 -0.600318
lowerneck -22.3095 3.03606 5.50868
upperneck 20.2691 3.41155 -3.95956
head 10.3339 1.54019 -1.79441
rclavicle 6.23687e-015 4.96962e-016
rhumerus -25.6624 4.14574 -82.5954
rradius 37.306
rwrist -0.310688
rhand -10.2189 -32.9074
rfingers 7.12502
rthumb 15.7729 -62.2847
lclavicle 6.23687e-015 4.96962e-016
lhumerus -32.0892 4.46965 79.4378
lradius 19.2666
lwrist -19.2031
lhand -15.7078 -24.7802
lfingers 7.12502
lthumb 10.482 4.93851
rfemur 6.93005 -7.94458 20.8796
rtibia 7.43302
rfoot -17.101 -2.78916
rtoes 11.8662
lfemur -6.74728 6.23445 -7.00811
ltibia 25.4872
lfoot -15.8122 -0.227531
ltoes -8.39666
2283
root -29.0129 16.9195 1.32651 670.196 87.6161 -46.0321
lowerback 9.71364 1.89842 0.513745
upperback 2.96397 2.67348 0.463599
thorax -2.3617 1.36849 -0.119542
lowerneck -22.2441 3.04518 5.45996
upperneck 20.2407 3.4165 -3.85234
head 10.3089 1.55247 -1.7474
rclavicle 4.21175e-015 6.4605e-015
rhumerus -25.5297 4.32821 -82.7453
rradius 36.6914
rwrist -0.533653
rhand -11.1919 -31.8136
rfingers 7.12502
rthumb 14.8357 -61.2625
lclavicle 4.21175e-015 6.4605e-015
lhumerus -32.315 4.64906 79.3398
lradius 19.4017
lwrist -19.0501
lhand -16.1895 -24.8986
lfingers 7.12502
lthumb 10.0173 4.84298
rfemur 7.75667 -8.74468 17.9513
rtibia 7.12587
rfoot -16.9657 -1.88804
rtoes 11.9939
lfemur -5.96995 5.91919 -9.7257
ltibia 25.118
lfoot -16.419 0.99136
ltoes -8.87247
2284
root -29.0533 16.9412 1.35801 648.546 85.6205 -68.0492
lowerback 9.91788 1.75266 2.73305
upperback 2.72432 2.72766 1.13862
thorax -2.65202 1.38718 -0.684024
lowerneck -22.3605 3.04217 5.49077
upperneck 20.4593 3.39855 -3.82781
head 10.4086 1.55008 -1.74685
rclavicle -1.27906e-014 -1.28216e-014
rhumerus -25.4782 4.40678 -82.8536
rradius 36.7329
rwrist 0.0559556
rhand -10.5947 -32.6769
rfingers 7.12502
rthumb 15.4109 -62.0825
lclavicle -1.27906e-014 -1.28216e-014
lhumerus -32.4095 4.74032 79.3056
lradius 19.4166
lwrist -18.7994
lhand -16.9319 -25.2091
lfingers 7.12502
lthumb 9.30107 4.56569
rfemur 6.99846 -7.39298 21.6141
rtibia 7.11302
rfoot -17.2746 -3.53306
rtoes 11.8414
lfemur -6.82447 6.17622 -6.56582
ltibia 25.9044
lfoot -16.8002 1.52407
ltoes -7.98568
2285
root -29.0659 16.9468 1.35982 654.93 85.4304 -61.6195
lowerback 10.129 1.95321 2.7885
upperback 2.69768 3.00708 1.12227
thorax -2.78375 1.52354 -0.773942
lowerneck -22.3725 3.0441 5.56818
upperneck 20.6039 3.38844 -3.85529
head 10.4649 1.54966 -1.77172
rclavicle 1.67228e-014 2.69353e-014
rhumerus -25.454 4.38722 -82.8997
rradius 36.6757
rwrist 0.445283
rhand -10.3882 -32.2762
rfingers 7.12502
rthumb 15.6098 -61.6663
lclavicle 1.67228e-014 2.69353e-014
lhumerus -32.4929 4.84153 79.283
lradius 19.4649
lwrist -18.4509
lhand -15.3127 -24.9973
lfingers 7.12502
lthumb 10.8632 4.7017
rfemur 6.78794 -7.16466 21.6297
rtibia 7.37473
rfoot -17.2611 -3.31888
rtoes 11.3942
lfemur -6.46035 6.34214 -6.57122
ltibia 25.8307
lfoot -17.2598 2.14075
ltoes -6.22545
2286
root -29.0286 16.9271 1.34222 683.337 87.4174 -32.9752
lowerback 9.80948 2.14753 0.437704
upperback 2.872 2.99172 0.369463
thorax -2.50701 1.52475 -0.217202
lowerneck -22.2346 3.01181 5.50557
upperneck 20.6031 3.33453 -3.69976
head 10.4324 1.54141 -1.71463
rclavicle 1.24551e-014 -5.36719e-015
rhumerus -25.4605 4.37228 -83.0331
rradius 36.3116
rwrist 0.772366
rhand -10.5877 -32.1856
rfingers 7.12502
rthumb 15.4176 -61.5907
lclavicle 1.24551e-014 -5.36719e-015
lhumerus -32.6492 4.94265 79.2241
lradius 19.5808
lwrist -18.1501
lhand -14.7735 -25.0094
lfingers 7.12502
lthumb 11.3832 4.66166
rfemur 7.43014 -8.3431 17.791
rtibia 7.24857
rfoot -16.9966 -1.87982
rtoes 11.1502
lfemur -5.51058 6.0144 -10.0892
ltibia 25.1606
lfoot -17.6277 2.8403
ltoes -5.9062
2287
root -29.0317 16.9308 1.34323 686.305 87.1552 -30.0112
lowerback 9.81857 2.24955 0.507351
upperback 2.88354 3.13448 0.383136
thorax -2.49638 1.5958 -0.258805
lowerneck -22.2483 2.98403 5.44554
upperneck 20.6478 3.28315 -3.56683
head 10.4449 1.52975 -1.66508
rclavicle -2.31087e-014 8.29926e-015
rhumerus -25.4161 4.45293 -83.2352
rradius 35.705
rwrist 1.06862
rhand -11.3128 -32.013
rfingers 7.12502
rthumb 14.7191 -61.4705
lclavicle -2.31087e-014 8.29926e-015
lhumerus -32.6671 5.05943 79.2162
lradius 19.6292
lwrist -18.0091
lhand -14.7963 -24.9526
lfingers 7.12502
lthumb 11.3612 4.71965
rfemur 7.32845 -8.21419 17.8597
rtibia 7.30959
rfoot -16.9452 -1.72402
rtoes 11.2433
lfemur -5.25104 6.23809 -10.0319
ltibia 25.1356
lfoot -17.9302 3.39823
ltoes -6.00317
2288
root -29.028 16.9288 1.34613 686.835 87.255 -29.5825
lowerback 9.66775 2.24812 0.471822
upperback 2.86956 3.12645 0.371275
thorax -2.42912 1.59163 -0.243828
lowerneck -22.3923 2.97889 5.49419
upperneck 20.843 3.25464 -3.55163
head 10.5417 1.52259 -1.67211
rclavicle -1.33496e-014 1.44119e-015
rhumerus -25.4523 4.27454 -83.3025
rradius 35.4488
rwrist 1.50884
rhand -11.0114 -32.1963
rfingers 7.12502
rthumb 15.0095 -61.6323
lclavicle -1.33496e-014 1.44119e-015
lhumerus -32.6418 5.22367 79.1922
lradius 19.6037
lwrist -17.9076
lhand -14.8338 -24.8012
lfingers 7.12502
lthumb 11.3251 4.873
rfemur 7.26687 -8.28284 17.7782
rtibia 7.26607
rfoot -16.9244 -1.66521
rtoes 11.6703
lfemur -5.2294 6.24532 -10.1377
ltibia 25.2631
lfoot -18.2043 3.57994
ltoes -5.35383
2289
root -29.0262 16.9341 1.34713 691.417 87.2523 -24.891
lowerback 9.69872 2.30314 0.250499
upperback 2.9326 3.18035 0.377585
thorax -2.39281 1.61983 -0.119552
lowerneck -22.4907 2.9966 5.56716
upperneck 20.9935 3.28855 -3.68133
head 10.6203 1.52815 -1.72582
rclavicle -1.92635e-014 8.12532e-015
rhumerus -25.5204 4.41303 -83.3921
rradius 35.3399
rwrist 1.56499
rhand -11.0349 -32.4128
rfingers 7.12502
rthumb 14.9868 -61.8505
lclavicle -1.92635e-014 8.12532e-015
lhumerus -32.6642 5.31303 79.3317
lradius 19.6662
lwrist -17.4929
lhand -15.0164 -24.6947
lfingers 7.12502
lthumb 11.149 4.98908
rfemur 7.36128 -8.31489 17.4864
rtibia 7.33138
rfoot -16.9054 -1.4548
rtoes 12.1123
lfemur -4.85676 6.29081 -10.3875
ltibia 25.2695
lfoot -18.364 3.75807
ltoes -5.16857
2290
root -29.0196 16.9334 1.34688 689.264 87.6595 -27.0664
lowerback 9.59407 2.15293 0.192036
upperback 2.90517 2.97429 0.388469
thorax -2.36755 1.51688 -0.048134
lowerneck -22.4212 3.01102 5.58277
upperneck 21.117 3.33283 -3.74875
head 10.6566 1.54395 -1.74679
rclavicle -1.98691e-014 -5.2181e-016
rhumerus -25.6849 4.45257 -83.4849
rradius 35.2131
rwrist 1.75535
rhand -11.148 -31.7447
rfingers 7.12502
rthumb 14.8779 -61.1905
lclavicle -1.98691e-014 -5.2181e-016
lhumerus -32.81 5.53687 79.3452
lradius 19.7379
lwrist -17.2693
lhand -15.2202 -24.7673
lfingers 7.12502
lthumb 10.9523 4.92704
rfemur 7.5655 -8.34609 17.3694
rtibia 7.07936
rfoot -16.9265 -1.79047
rtoes 12.1006
lfemur -4.77913 5.9805 -10.6027
ltibia 25.4008
lfoot -18.5552 3.77706
ltoes -5.2416
2291
root -29.0248 16.9379 1.34768 694.509 87.3643 -21.7426
lowerback 9.68333 2.29848 0.0517416
upperback 2.93063 3.15704 0.448156
thorax -2.40103 1.6082 0.067529
lowerneck -22.492 3.00972 5.55078
upperneck 21.2579 3.36448 -3.82345
head 10.7239 1.54701 -1.76393
rclavicle 2.50853e-014 -3.50979e-015
rhumerus -25.8518 4.37526 -83.471
rradius 35.1929
rwrist 1.91021
rhand -12.2426 -29.4213
rfingers 7.12502
rthumb 13.8232 -58.942
lclavicle 2.50853e-014 -3.50979e-015
lhumerus -32.7519 6.01105 79.3422
lradius 19.6604
lwrist -17.4376
lhand -15.4789 -25.0109
lfingers 7.12502
lthumb 10.7028 4.69645
rfemur 7.54328 -8.03476 17.3555
rtibia 7.13178
rfoot -16.8511 -1.78316
rtoes 11.6585
lfemur -4.41638 6.42195 -10.6306
ltibia 25.4658
lfoot -18.8181 3.75259
ltoes -4.25391
2292
root -29.0204 16.9346 1.34754 696.938 87.4827 -19.4405
lowerback 9.48995 2.25282 0.110929
upperback 2.888 3.09471 0.2996
thorax -2.32719 1.57644 -0.103967
lowerneck -22.4464 3.04511 5.70198
upperneck 21.3211 3.37757 -3.85912
head 10.7431 1.56255 -1.80034
rclavicle -1.89125e-014 1.93815e-015
rhumerus -26.0641 4.2015 -83.7564
rradius 35.0842
rwrist 2.05175
rhand -11.1391 -31.0994
rfingers 7.12502
rthumb 14.8864 -60.5445
lclavicle -1.89125e-014 1.93815e-015
lhumerus -32.7873 5.85875 79.3284
lradius 19.7178
lwrist -16.9133
lhand -15.8776 -25.2307
lfingers 7.12502
lthumb 10.3182 4.49613
rfemur 7.48191 -8.07444 17.1857
rtibia 7.09034
rfoot -16.9289 -1.81841
rtoes 11.4558
lfemur -4.42873 6.54118 -10.8274
ltibia 25.6011
lfoot -18.9424 3.68001
ltoes -3.67334
2293
root -29.0147 16.9401 1.34622 702.991 87.4444 -13.2716
lowerback 9.62432 2.29296 -0.127082
upperback 2.86767 3.12406 0.248586
thorax -2.43184 1.591 -0.0335215
lowerneck -22.4293 3.07228 5.75097
upperneck 21.4478 3.41672 -3.89592
head 10.7905 1.58177 -1.81635
rclavicle 3.11005e-014 3.77691e-015
rhumerus -26.2518 4.23718 -83.8728
rradius 35.0006
rwrist 2.38801
rhand -10.1682 -31.0342
rfingers 7.12502
rthumb 15.8216 -60.4077
lclavicle 3.11005e-014 3.77691e-015
lhumerus -32.9555 5.74132 79.4757
lradius 19.9097
lwrist -16.3032
lhand -16.0488 -25.4011
lfingers 7.12502
lthumb 10.1531 4.33391
rfemur 7.60954 -8.15465 16.7972
rtibia 7.15968
rfoot -16.9793 -1.5657
rtoes 11.8077
lfemur -3.93394 6.42474 -11.2074
ltibia 25.4509
lfoot -19.0682 3.81774
ltoes -4.16955
2294
root -29.0043 16.9368 1.34487 703.945 87.8029 -12.44
lowerback 9.3629 2.16563 -0.185921
upperback 2.85184 2.94646 0.192077
thorax -2.30377 1.50229 -0.0276239
lowerneck -22.4959 3.08956 5.77821
upperneck 21.5818 3.41243 -3.81698
head 10.8512 1.59259 -1.79317
rclavicle -8.30081e-015 2.60905e-015
rhumerus -26.366 4.41318 -84.0939
rradius 35.0889
rwrist 2.50259
rhand -9.95654 -30.7702
rfingers 7.12502
rthumb 16.0255 -60.1274
lclavicle -8.30081e-015 2.60905e-015
lhumerus -33.0609 5.5405 79.6196
lradius 20.202
lwrist -15.7061
lhand -15.9453 -25.2335
lfingers 7.12502
lthumb 10.253 4.49658
rfemur 7.66689 -8.23595 16.6287
rtibia 6.93166
rfoot -16.9219 -1.73612
rtoes 12.5044
lfemur -3.89553 6.14871 -11.4712
ltibia 25.555
lfoot -19.2013 3.68401
ltoes -5.28126
2295
root -29.005 16.9391 1.34314 708.19 87.3318 -8.19029
lowerback 9.37512 2.31525 -0.245099
upperback 2.8482 3.13741 0.133161
thorax -2.31451 1.59725 -0.077278
lowerneck -22.5625 3.0972 5.84041
upperneck 21.6429 3.39625 -3.80557
head 10.8864 1.59153 -1.80186
rclavicle 1.44616e-014 -3.62782e-015
rhumerus -26.4959 4.49495 -84.3244
rradius 35.0508
rwrist 2.34391
rhand -10.3056 -30.4707
rfingers 7.12502
rthumb 15.6893 -59.8546
lclavicle 1.44616e-014 -3.62782e-015
lhumerus -33.0822 5.1646 79.8692
lradius 20.4006
lwrist -14.8706
lhand -15.8261 -24.8079
lfingers 7.12502
lthumb 10.3679 4.91648
rfemur 7.476 -7.94688 16.5696
rtibia 7.06653
rfoot -16.8232 -1.50108
rtoes 12.7587
lfemur -3.52056 6.60242 -11.5283
ltibia 25.5469
lfoot -19.2966 3.78487
ltoes -6.51412
